<?xml version='1.0' encoding='utf-8'?>
<svg xmlns="http://www.w3.org/2000/svg" width="1920" height="1080" viewBox="0 0 1920 1080" data-theme="dark">
  <style>
        @font-face {
            font-family: 'Inter';
            src: url('assets/fonts/Inter-Regular.ttf') format('truetype');
            font-weight: 400;
            font-style: normal;
            font-display: swap;
        }
        @font-face {
            font-family: 'Inter';
            src: url('assets/fonts/Inter-Bold.ttf') format('truetype');
            font-weight: 600;
            font-style: normal;
            font-display: swap;
        }
        @font-face {
            font-family: 'Inter';
            src: url('assets/fonts/Inter-Bold.ttf') format('truetype');
            font-weight: 800;
            font-style: normal;
            font-display: swap;
        }
        
:root {
    --background: #0f172a;
    --panel: #1e293b;
    --primary-text: #f1f5f9;
    --muted-text: #94a3b8;
    --inverse-text: #0f172a;
    --border: #334155;
    --shadow-color: #000000;
    --icon-pad-bg: #1e293b;
    --art-glow: #7dd3fc;
    --art-glow-opacity: 0.18;
    --art-sheen: #ffffff;
    --art-sheen-opacity: 0.18;
    --art-shadow: #000000;
    --art-shadow-opacity: 0.28;
    --art-muted-line: #64748b;
    --art-panel-tint: #1e293b;
    --font-family: 'Inter', 'Segoe UI', 'Kalam', Roboto, Helvetica, Arial, sans-serif;
    --radius-xl: 16px;
    --font-family-headline: 'Inter', 'Segoe UI', 'Kalam', Roboto, Helvetica, Arial, sans-serif;
    --font-family-body: 'Inter', 'Segoe UI', 'Kalam', Roboto, Helvetica, Arial, sans-serif;
    --font-heading: 'Inter', 'Segoe UI', 'Kalam', Roboto, Helvetica, Arial, sans-serif;
    --font-body: 'Inter', 'Segoe UI', 'Kalam', Roboto, Helvetica, Arial, sans-serif;
    --font-size-h1: 56px;
    --font-size-h2: 40px;
    --font-size-h3: 28px;
    --font-size-body: 24px;
    --font-size-caption: 18px;
    --secondary-text: var(--muted-text);
    --panel-border: var(--border);
    --font-weight-normal: 400;
    --font-weight-medium: 500;
    --font-weight-semibold: 600;
    --font-weight-bold: 700;
    --spacing-gutter-pct: 0.07;
    --spacing-top-pct: 0.15;
    --spacing-bottom-pct: 0.07;
    --spacing-title-y-pct: 0.055;
    --accent-1: #fbbf24;
    --accent-2: #fb923c;
    --accent-3: #f87171;
    --accent-4: #a3e635;
    --accent-5: #4ade80;
    --accent-6: #d4a574;
}
:root[data-theme="dark"] {
    --background: #0f172a;
    --panel: #1e293b;
    --primary-text: #f1f5f9;
    --muted-text: #94a3b8;
    --inverse-text: #0f172a;
    --border: #334155;
    --shadow-color: #000000;
    --icon-pad-bg: #1e293b;
    --art-glow: #7dd3fc;
    --art-glow-opacity: 0.18;
    --art-sheen: #ffffff;
    --art-sheen-opacity: 0.18;
    --art-shadow: #000000;
    --art-shadow-opacity: 0.28;
    --art-muted-line: #64748b;
    --art-panel-tint: #1e293b;
    --accent-1: #fbbf24;
    --accent-2: #fb923c;
    --accent-3: #f87171;
    --accent-4: #a3e635;
    --accent-5: #4ade80;
    --accent-6: #d4a574;
}
:root[data-theme="light"] {
    --background: #f8fafc;
    --panel: #ffffff;
    --primary-text: #0f172a;
    --muted-text: #64748b;
    --inverse-text: #ffffff;
    --border: #e2e8f0;
    --shadow-color: #000000;
    --icon-pad-bg: #1e293b;
    --art-glow: #0891b2;
    --art-glow-opacity: 0.10;
    --art-sheen: #ffffff;
    --art-sheen-opacity: 0.34;
    --art-shadow: #0f172a;
    --art-shadow-opacity: 0.14;
    --art-muted-line: #94a3b8;
    --art-panel-tint: #f1f5f9;
    --accent-1: #d97706;
    --accent-2: #ea580c;
    --accent-3: #dc2626;
    --accent-4: #65a30d;
    --accent-5: #16a34a;
    --accent-6: #92400e;
}</style>
  <rect x="0" y="0" width="1.92E+3" height="1.08E+3" fill="#252a34" stroke="none" id="programmatic_background"/>
  <line id="HEADER_DECOR" x1="960.0" x2="1080.0" y1="135.0" y2="135.0" stroke="var(--accent-1)" stroke-width="6" stroke-linecap="round"/>
  <defs>
    <pattern id="svg63f696ef-napkin-hatch" patternUnits="userSpaceOnUse" width="12" height="12">
      <path d="M -3 12 L 12 -3 M 0 15 L 15 0" fill="none" stroke="var(--primary-text)" stroke-width="1" stroke-opacity="0.05"/>
    </pattern>
    <filter id="svg63f696ef-shadow" x="-30%" y="-30%" width="160%" height="160%">
      <feDropShadow dx="0" dy="2" stdDeviation="3" flood-color="#000000" flood-opacity="0.08"/>
      <feDropShadow dx="0" dy="6" stdDeviation="10" flood-color="#000000" flood-opacity="0.12"/>
    </filter>
    <filter id="svg63f696ef-beam-glow" x="-40%" y="-40%" width="180%" height="180%">
      <feDropShadow dx="0" dy="0" stdDeviation="8" flood-color="#000000" flood-opacity="0.12"/>
    </filter>
    <radialGradient id="svg63f696ef-universal-edge-vignette" cx="50%" cy="50%" r="72%">
      <stop offset="0%" stop-color="var(--background)" stop-opacity="0"/>
      <stop offset="72%" stop-color="var(--background)" stop-opacity="0.12"/>
      <stop offset="100%" stop-color="var(--primary-text)" stop-opacity="0.08"/>
    </radialGradient>
    <linearGradient id="svg63f696ef-universal-surface-sheen" x1="0%" y1="0%" x2="100%" y2="100%">
      <stop offset="0%" stop-color="var(--art-sheen)" stop-opacity="var(--art-sheen-opacity)"/>
      <stop offset="46%" stop-color="var(--art-sheen)" stop-opacity="0.035"/>
      <stop offset="100%" stop-color="var(--art-panel-tint)" stop-opacity="0.14"/>
    </linearGradient>
    <radialGradient id="svg63f696ef-universal-icon-aura" cx="50%" cy="42%" r="64%">
      <stop offset="0%" stop-color="var(--art-glow)" stop-opacity="var(--art-glow-opacity)"/>
      <stop offset="100%" stop-color="var(--background)" stop-opacity="0"/>
    </radialGradient>
    <linearGradient id="svg63f696ef-prism-glass-sheen" x1="0%" y1="0%" x2="100%" y2="100%">
      <stop offset="0%" stop-color="var(--inverse-text)" stop-opacity="0.20"/>
      <stop offset="100%" stop-color="var(--inverse-text)" stop-opacity="0"/>
    </linearGradient>
    <filter id="svg63f696ef-text-glow" x="-20%" y="-20%" width="140%" height="140%">
      <feDropShadow dx="0" dy="0" stdDeviation="2" flood-color="#000000" flood-opacity="0.4"/>
    </filter>
    <marker id="svg63f696ef-arrowhead" markerWidth="10" markerHeight="7" refX="9" refY="3.5" orient="auto" markerUnits="strokeWidth">
      <polygon points="0 0, 10 3.5, 0 7" fill="var(--muted-text)" opacity="0.6"/>
    </marker>
  </defs>
  <rect width="100%" height="100%" fill="var(--background)" id="CANVAS_BG"/>
  <rect width="100%" height="100%" fill="url(#svg63f696ef-napkin-hatch)"/>
  <rect id="UNIVERSAL_EDGE_VIGNETTE" width="100%" height="100%" fill="url(#svg63f696ef-universal-edge-vignette)" opacity="0.62"/>
  <text id="TITLE" x="960.0" y="59" text-anchor="middle" font-weight="800" font-size="56" fill="#f1f5f9" style="font-size: 60px; font-family: Inter, Segoe UI, Kalam, Roboto, Helvetica, Arial, sans-serif; font-weight: 700; letter-spacing:-1.2px;" data-final-font-size="60">
    <tspan x="960.0" dy="68.00px">Ligurian Archive Data Parameters</tspan>
  </text>
  <rect id="TITLE_FRAME" x="134" y="59" width="1652" height="103" fill="none"/>
  <path d="M 0 540 L 598 540" stroke="var(--primary-text)" stroke-width="20" stroke-linecap="round" opacity="0.08"/>
  <path d="M 0 540 L 598 540" stroke="var(--primary-text)" stroke-width="10" stroke-linecap="round" opacity="0.45"/>
  <text x="200" y="500" font-weight="bold" font-size="32" fill="var(--muted-text)">INPUT</text>
  <ellipse id="PRISM_ART_SHADOW" cx="690" cy="718" rx="180" ry="38" fill="var(--primary-text)" opacity="0.055"/>
  <path d="M 600 690 L 600 390 L 840 540 Z" fill="var(--panel)" fill-opacity="0.72" stroke="var(--primary-text)" stroke-width="9" stroke-opacity="0.75"/>
  <path id="PRISM_ART_GLASS_SHEEN" d="M 622 426 L 622 654 L 792 540 Z" fill="url(#svg63f696ef-prism-glass-sheen)" opacity="0.88"/>
  <path d="M 600 540 L 756 540" fill="none" stroke="var(--primary-text)" stroke-width="3" stroke-opacity="0.28"/>
  <path d="M 600 390 L 688 540 L 600 690" fill="none" stroke="var(--primary-text)" stroke-width="3" stroke-opacity="0.18"/>
  <g>
    <line x1="840" y1="540" x2="1100" y2="275" stroke="var(--accent-1)" stroke-width="18" stroke-linecap="round" opacity="0.18" filter="url(#svg63f696ef-beam-glow)"/>
    <line x1="840" y1="540" x2="1100" y2="275" stroke="var(--accent-1)" stroke-width="4" stroke-linecap="round" opacity="0.72"/>
    <g transform="translate(1100, 275)">
      <path id="ITEM_1_BG" d="M 0 -60 L 610 -60 L 740 15 L 610 90 L 0 90 L 56 15 Z" fill="var(--panel)" fill-opacity="0.95" stroke="var(--accent-1)" stroke-width="3" filter="url(#svg63f696ef-shadow)"/>
      <rect id="ITEM_1_TEXT_BG" x="138" y="-42" width="520" height="114" rx="18" fill="var(--panel)" fill-opacity="0.9" stroke="var(--primary-text)" stroke-opacity="0.1" stroke-width="1.5"/>
      <rect x="150" y="-32" width="496" height="94" rx="14" fill="url(#svg63f696ef-universal-surface-sheen)" opacity="0.76"/>
      <circle cx="82" cy="15" r="56" fill="url(#svg63f696ef-universal-icon-aura)" opacity="0.82"/>
      <circle id="ITEM_1_PAD" cx="82" cy="15" r="40" fill="var(--icon-pad-bg)" stroke="var(--primary-text)" opacity="0.94" fill-opacity="0.9" stroke-width="2"/>
      <circle id="ITEM_1_PAD_INNER" cx="82" cy="15" r="31.20" fill="var(--accent-4)" fill-opacity="0.22"/>
      <circle cx="82" cy="15" r="32" fill="none" stroke="var(--accent-1)" stroke-width="3" stroke-dasharray="6 4"/>
      <g id="ITEM_1_ICON" transform="translate(50, -17)" data-icon-size="64" stroke-dasharray="6 4">
        <g transform="translate(-4.571428571428571,-4.571428571428571) scale(2.2857142857142856)">
          <path d="M15.5 28C21.8513 28 27 22.8513 27 16.5C27 10.1487 21.8513 5 15.5 5C9.14873 5 4 10.1487 4 16.5C4 22.8513 9.14873 28 15.5 28Z" fill="#F4F4F4"/>
          <path d="M25.7663 7.73298C26.1431 7.9044 26.5609 8 27 8C28.65 8 30 6.65 30 5C30 3.35 28.65 2 27 2C25.35 2 24 3.35 24 5C24 5.43909 24.0956 5.85693 24.267 6.23373C21.9083 4.21752 18.8463 3 15.5 3C8.04416 3 2 9.04416 2 16.5C2 23.9558 8.04416 30 15.5 30C22.9558 30 29 23.9558 29 16.5C29 13.1537 27.7825 10.0917 25.7663 7.73298ZM25.39 4.99C25.39 4.1 26.11 3.38 27 3.38C27.88 3.38 28.61 4.1 28.61 4.99C28.61 5.88 27.89 6.6 27 6.6C26.11 6.6 25.39 5.88 25.39 4.99ZM26 16.5C26 22.299 21.299 27 15.5 27C9.70101 27 5 22.299 5 16.5C5 10.701 9.70101 6 15.5 6C21.299 6 26 10.701 26 16.5Z" fill="#F9C23C"/>
          <path d="M25.35 7.99994L23.99 6.63994L25.35 5.27994C25.72 4.90994 26.33 4.90994 26.71 5.27994C27.08 5.64994 27.08 6.25994 26.71 6.63994L25.35 7.99994Z" fill="#FFB02E"/>
          <path d="M13.2234 17.724L11.4099 20.21C11.2299 20.45 11.5299 20.75 11.7799 20.58L14.2735 18.7609L15.2099 24.7499C15.2599 25.0799 15.7399 25.0799 15.7899 24.7499L16.8663 17.8663L23.7499 16.7899C24.0799 16.7399 24.0799 16.2599 23.7499 16.2099L17.7609 15.2735L19.5799 12.78C19.7599 12.54 19.4599 12.24 19.2099 12.41L16.724 14.2234L15.7899 8.24994C15.7399 7.91994 15.2599 7.91994 15.2099 8.24994L14.1336 15.1336L7.24994 16.2099C6.91994 16.2599 6.91994 16.7399 7.24994 16.7899L13.2234 17.724Z" fill="#9B9B9B"/>
          <path d="M17.3382 15L20.9393 21.3271C21.1631 21.7255 20.7252 22.1629 20.3261 21.9394L14 18.3336L17.3382 15Z" fill="#9B9B9B"/>
          <path d="M13.6756 18L10.0605 11.672C9.83756 11.2741 10.2737 10.8373 10.6711 11.0606L17 14.671L13.6756 18Z" fill="#E5336D"/>
          <path d="M15.5 19C16.8807 19 18 17.8807 18 16.5C18 15.1193 16.8807 14 15.5 14C14.1193 14 13 15.1193 13 16.5C13 17.8807 14.1193 19 15.5 19Z" fill="#D3D3D3"/>
        </g>
      </g>
      <text id="ITEM_1_HEAD" x="162.0" y="-30.0" font-weight="700" font-size="27" fill="var(--accent-4)" data-bg-id="ITEM_1_TEXT_BG" fill-opacity="1.0" stroke="none" style="font-size: 30px; font-family: Inter, Segoe UI, Kalam, Roboto, Helvetica, Arial, sans-serif; font-weight: 700; letter-spacing:-0.4px;" data-final-font-size="30">
        <tspan x="162.0" dy="29.49px">Spatial Coordinates</tspan>
      </text>
      <rect id="ITEM_1_HEAD_FRAME" x="162" y="-30" width="472" height="36" fill="none"/>
      <text id="ITEM_1_BODY" x="162.0" y="10.0" font-size="18.5" fill="var(--primary-text)" data-bg-id="ITEM_1_TEXT_BG" style="font-size: 26px; font-family: Inter, Segoe UI, Kalam, Roboto, Helvetica, Arial, sans-serif; font-weight: 400;" data-final-font-size="26">
        <tspan x="162.0" dy="23.00px">Records include specific location</tspan>
        <tspan x="162.0" dy="29.90px">and altitude of the sighting</tspan>
      </text>
      <rect id="ITEM_1_BODY_FRAME" x="162" y="10" width="468" height="60" fill="none"/>
    </g>
    <line x1="840" y1="540" x2="1100" y2="425" stroke="var(--accent-2)" stroke-width="18" stroke-linecap="round" opacity="0.18" filter="url(#svg63f696ef-beam-glow)"/>
    <line x1="840" y1="540" x2="1100" y2="425" stroke="var(--accent-2)" stroke-width="4" stroke-linecap="round" opacity="0.72"/>
    <g transform="translate(1100, 425)">
      <path id="ITEM_2_BG" d="M 0 -60 L 610 -60 L 740 15 L 610 90 L 0 90 L 56 15 Z" fill="var(--panel)" fill-opacity="0.95" stroke="var(--accent-2)" stroke-width="3" filter="url(#svg63f696ef-shadow)"/>
      <rect id="ITEM_2_TEXT_BG" x="138" y="-42" width="520" height="114" rx="18" fill="var(--panel)" fill-opacity="0.9" stroke="var(--primary-text)" stroke-opacity="0.1" stroke-width="1.5"/>
      <rect x="150" y="-32" width="496" height="94" rx="14" fill="url(#svg63f696ef-universal-surface-sheen)" opacity="0.76"/>
      <circle cx="82" cy="15" r="56" fill="url(#svg63f696ef-universal-icon-aura)" opacity="0.82"/>
      <circle id="ITEM_2_PAD" cx="82" cy="15" r="40" fill="var(--icon-pad-bg)" stroke="var(--primary-text)" opacity="0.94" fill-opacity="0.9" stroke-width="2"/>
      <circle id="ITEM_2_PAD_INNER" cx="82" cy="15" r="31.20" fill="var(--accent-5)" fill-opacity="0.22"/>
      <circle cx="82" cy="15" r="32" fill="none" stroke="var(--accent-2)" stroke-width="3" stroke-dasharray="6 4"/>
      <g id="ITEM_2_ICON" transform="translate(50, -17)" data-icon-size="64" stroke-dasharray="6 4">
        <g transform="translate(-4.571428571428571,-14.857142857142854) scale(2.2857142857142856)">
          <path d="M5.5 11C5.22386 11 5 11.2239 5 11.5V13H9V11.5C9 11.2239 8.77614 11 8.5 11H5.5Z" fill="#D3D3D3"/>
          <path d="M21.5 11C21.2239 11 21 11.2239 21 11.5V13H27V11.5C27 11.2239 26.7761 11 26.5 11H21.5Z" fill="#D3D3D3"/>
          <path d="M2 14C2 12.8954 2.89543 12 4 12H28C29.1046 12 30 12.8954 30 14V16.5L28 22L30 27.5V28C30 29.1046 29.1046 30 28 30H4C2.89543 30 2 29.1046 2 28V27.5L3.5 22L2 16.5V14Z" fill="#E6E6E6"/>
          <path d="M2 16.5C2 16.2239 2.22386 16 2.5 16H29.5C29.7761 16 30 16.2239 30 16.5V27.5C30 27.7761 29.7761 28 29.5 28H2.5C2.22386 28 2 27.7761 2 27.5V16.5Z" fill="#533566"/>
          <path d="M22 22C22 25.3137 19.3137 28 16 28C12.6863 28 10 25.3137 10 22C10 18.6863 12.6863 16 16 16C19.3137 16 22 18.6863 22 22Z" fill="#321B41"/>
          <path d="M16 27C18.7614 27 21 24.7614 21 22C21 19.2386 18.7614 17 16 17C13.2386 17 11 19.2386 11 22C11 24.7614 13.2386 27 16 27ZM16 29C12.134 29 9 25.866 9 22C9 18.134 12.134 15 16 15C19.866 15 23 18.134 23 22C23 25.866 19.866 29 16 29Z" fill="#9B9B9B"/>
          <path d="M18.5 22C18.5 23.3807 17.3807 24.5 16 24.5C14.6193 24.5 13.5 23.3807 13.5 22C13.5 20.6193 14.6193 19.5 16 19.5C17.3807 19.5 18.5 20.6193 18.5 22Z" fill="#433B6B"/>
          <path d="M19.0825 19.875C19.4967 20.5924 19.4448 21.3979 18.9665 21.674C18.4882 21.9501 17.7647 21.5924 17.3505 20.875C16.9363 20.1575 16.9882 19.3521 17.4665 19.0759C17.9448 18.7998 18.6683 19.1575 19.0825 19.875Z" fill="white"/>
        </g>
      </g>
      <text id="ITEM_2_HEAD" x="162.0" y="-30.0" font-weight="700" font-size="27" fill="var(--accent-5)" data-bg-id="ITEM_2_TEXT_BG" fill-opacity="1.0" stroke="none" style="font-size: 30px; font-family: Inter, Segoe UI, Kalam, Roboto, Helvetica, Arial, sans-serif; font-weight: 700; letter-spacing:-0.4px;" data-final-font-size="30">
        <tspan x="162.0" dy="29.49px">Visual Characteristics</tspan>
      </text>
      <rect id="ITEM_2_HEAD_FRAME" x="162" y="-30" width="472" height="36" fill="none"/>
      <text id="ITEM_2_BODY" x="162.0" y="10.0" font-size="18.5" fill="var(--primary-text)" data-bg-id="ITEM_2_TEXT_BG" style="font-size: 26px; font-family: Inter, Segoe UI, Kalam, Roboto, Helvetica, Arial, sans-serif; font-weight: 400;" data-final-font-size="26">
        <tspan x="162.0" dy="23.00px">Entries tabulate shape, color, and</tspan>
        <tspan x="162.0" dy="29.90px">speed of the light</tspan>
      </text>
      <rect id="ITEM_2_BODY_FRAME" x="162" y="10" width="468" height="60" fill="none"/>
    </g>
    <line x1="840" y1="540" x2="1100" y2="575" stroke="var(--accent-3)" stroke-width="18" stroke-linecap="round" opacity="0.18" filter="url(#svg63f696ef-beam-glow)"/>
    <line x1="840" y1="540" x2="1100" y2="575" stroke="var(--accent-3)" stroke-width="4" stroke-linecap="round" opacity="0.72"/>
    <g transform="translate(1100, 575)">
      <path id="ITEM_3_BG" d="M 0 -60 L 610 -60 L 740 15 L 610 90 L 0 90 L 56 15 Z" fill="var(--panel)" fill-opacity="0.95" stroke="var(--accent-3)" stroke-width="3" filter="url(#svg63f696ef-shadow)"/>
      <rect id="ITEM_3_TEXT_BG" x="138" y="-42" width="520" height="114" rx="18" fill="var(--panel)" fill-opacity="0.9" stroke="var(--primary-text)" stroke-opacity="0.1" stroke-width="1.5"/>
      <rect x="150" y="-32" width="496" height="94" rx="14" fill="url(#svg63f696ef-universal-surface-sheen)" opacity="0.76"/>
      <circle cx="82" cy="15" r="56" fill="url(#svg63f696ef-universal-icon-aura)" opacity="0.82"/>
      <circle id="ITEM_3_PAD" cx="82" cy="15" r="40" fill="var(--icon-pad-bg)" stroke="var(--primary-text)" opacity="0.94" fill-opacity="0.9" stroke-width="2"/>
      <circle id="ITEM_3_PAD_INNER" cx="82" cy="15" r="31.20" fill="var(--accent-6)" fill-opacity="0.22"/>
      <circle cx="82" cy="15" r="32" fill="none" stroke="var(--accent-3)" stroke-width="3" stroke-dasharray="6 4"/>
      <g id="ITEM_3_ICON" transform="translate(50, -17)" data-icon-size="64" stroke-dasharray="6 4">
        <g transform="translate(-4.571428571428571,-4.571428571428571) scale(2.2857142857142856)">
          <path d="M21.74 16.08L8.83 3.17C7.27 1.61 4.74 1.61 3.17 3.17C1.61 4.73 1.61 7.26 3.17 8.83L16.08 21.74C15.69 23.92 16.34 26.24 18.02 27.92C20.75 30.65 25.19 30.65 27.92 27.92C30.65 25.19 30.65 20.75 27.92 18.02C26.24 16.34 23.92 15.7 21.74 16.08Z" fill="#F4F4F4"/>
          <path d="M4.59 7.42002C3.81 6.64002 3.81 5.37 4.59 4.59C5.37 3.81 6.63 3.81 7.42 4.59L21.1439 18.3139C21.7096 18.0919 22.3255 17.97 22.97 17.97C25.7314 17.97 27.97 20.2085 27.97 22.97C27.97 25.7314 25.7314 27.97 22.97 27.97C20.2085 27.97 17.97 25.7314 17.97 22.97C17.97 22.3255 18.0919 21.7096 18.3139 21.1439L4.59 7.42002Z" fill="#F8312F"/>
          <path d="M10.23 4.59998L8.11 6.71997C7.72 7.10997 7.72 7.74997 8.11 8.12997C8.5 8.51997 9.13 8.51997 9.52 8.12997L11.64 6.00998L10.23 4.59998ZM12.35 10.97L14.47 8.84998L15.88 10.26L13.76 12.38C13.37 12.77 12.74 12.77 12.35 12.38C11.96 11.99 11.96 11.36 12.35 10.97ZM16.59 15.21L18.71 13.09L20.12 14.5L18 16.62C17.61 17.01 16.98 17.01 16.59 16.62C16.2 16.23 16.2 15.6 16.59 15.21Z" fill="black"/>
          <path d="M24.97 23.97C26.0745 23.97 26.97 23.0745 26.97 21.97C26.97 20.8654 26.0745 19.97 24.97 19.97C23.8654 19.97 22.97 20.8654 22.97 21.97C22.97 23.0745 23.8654 23.97 24.97 23.97Z" fill="#FF8687"/>
        </g>
      </g>
      <text id="ITEM_3_HEAD" x="162.0" y="-30.0" font-weight="700" font-size="27" fill="var(--accent-6)" data-bg-id="ITEM_3_TEXT_BG" fill-opacity="1.0" stroke="none" style="font-size: 30px; font-family: Inter, Segoe UI, Kalam, Roboto, Helvetica, Arial, sans-serif; font-weight: 700; letter-spacing:-0.4px;" data-final-font-size="30">
        <tspan x="162.0" dy="29.49px">Environmental Context</tspan>
      </text>
      <rect id="ITEM_3_HEAD_FRAME" x="162" y="-30" width="472" height="36" fill="none"/>
      <text id="ITEM_3_BODY" x="162.0" y="10.0" font-size="18.5" fill="var(--primary-text)" data-bg-id="ITEM_3_TEXT_BG" style="font-size: 26px; font-family: Inter, Segoe UI, Kalam, Roboto, Helvetica, Arial, sans-serif; font-weight: 400;" data-final-font-size="26">
        <tspan x="162.0" dy="23.00px">Weather conditions like rain, fog, or</tspan>
        <tspan x="162.0" dy="29.90px">clear skies are noted</tspan>
      </text>
      <rect id="ITEM_3_BODY_FRAME" x="162" y="10" width="468" height="60" fill="none"/>
    </g>
    <line x1="840" y1="540" x2="1100" y2="725" stroke="var(--accent-4)" stroke-width="18" stroke-linecap="round" opacity="0.18" filter="url(#svg63f696ef-beam-glow)"/>
    <line x1="840" y1="540" x2="1100" y2="725" stroke="var(--accent-4)" stroke-width="4" stroke-linecap="round" opacity="0.72"/>
    <g transform="translate(1100, 725)">
      <path id="ITEM_4_BG" d="M 0 -60 L 610 -60 L 740 15 L 610 90 L 0 90 L 56 15 Z" fill="var(--panel)" fill-opacity="0.95" stroke="var(--accent-4)" stroke-width="3" filter="url(#svg63f696ef-shadow)"/>
      <rect id="ITEM_4_TEXT_BG" x="138" y="-42" width="520" height="114" rx="18" fill="var(--panel)" fill-opacity="0.9" stroke="var(--primary-text)" stroke-opacity="0.1" stroke-width="1.5"/>
      <rect x="150" y="-32" width="496" height="94" rx="14" fill="url(#svg63f696ef-universal-surface-sheen)" opacity="0.76"/>
      <circle cx="82" cy="15" r="56" fill="url(#svg63f696ef-universal-icon-aura)" opacity="0.82"/>
      <circle id="ITEM_4_PAD" cx="82" cy="15" r="40" fill="var(--icon-pad-bg)" stroke="var(--primary-text)" opacity="0.94" fill-opacity="0.9" stroke-width="2"/>
      <circle id="ITEM_4_PAD_INNER" cx="82" cy="15" r="31.20" fill="var(--accent-1)" fill-opacity="0.22"/>
      <circle cx="82" cy="15" r="32" fill="none" stroke="var(--accent-4)" stroke-width="3" stroke-dasharray="6 4"/>
      <g id="ITEM_4_ICON" transform="translate(50, -17)" data-icon-size="64" stroke-dasharray="6 4">
        <g transform="translate(-2.711864406779661,-2.711864406779661) scale(2.8926553672316384)" vector-effect="non-scaling-stroke" stroke-width="2.48" stroke-linecap="round" stroke-linejoin="round" stroke-opacity="1.0">
          <path d="M3.85 8.62a4 4 0 0 1 4.78-4.77 4 4 0 0 1 6.74 0 4 4 0 0 1 4.78 4.78 4 4 0 0 1 0 6.74 4 4 0 0 1-4.77 4.78 4 4 0 0 1-6.75 0 4 4 0 0 1-4.78-4.77 4 4 0 0 1 0-6.76Z" vector-effect="non-scaling-stroke" fill="none" stroke="#f1f5f9"/>
        </g>
      </g>
      <text id="ITEM_4_HEAD" x="162.0" y="-30.0" font-weight="700" font-size="27" fill="var(--accent-1)" data-bg-id="ITEM_4_TEXT_BG" fill-opacity="1.0" stroke="none" style="font-size: 30px; font-family: Inter, Segoe UI, Kalam, Roboto, Helvetica, Arial, sans-serif; font-weight: 700; letter-spacing:-0.4px;" data-final-font-size="30">
        <tspan x="162.0" dy="29.49px">Witness Profile</tspan>
      </text>
      <rect id="ITEM_4_HEAD_FRAME" x="162" y="-30" width="472" height="36" fill="none"/>
      <text id="ITEM_4_BODY" x="162.0" y="10.0" font-size="18.5" fill="var(--primary-text)" data-bg-id="ITEM_4_TEXT_BG" style="font-size: 26px; font-family: Inter, Segoe UI, Kalam, Roboto, Helvetica, Arial, sans-serif; font-weight: 400;" data-final-font-size="26">
        <tspan x="162.0" dy="23.00px">Distinguishes between professional</tspan>
        <tspan x="162.0" dy="29.90px">personnel and private citizens</tspan>
      </text>
      <rect id="ITEM_4_BODY_FRAME" x="162" y="10" width="468" height="60" fill="none"/>
    </g>
    <line x1="840" y1="540" x2="1100" y2="875" stroke="var(--accent-5)" stroke-width="18" stroke-linecap="round" opacity="0.18" filter="url(#svg63f696ef-beam-glow)"/>
    <line x1="840" y1="540" x2="1100" y2="875" stroke="var(--accent-5)" stroke-width="4" stroke-linecap="round" opacity="0.72"/>
    <g transform="translate(1100, 875)">
      <path id="ITEM_5_BG" d="M 0 -60 L 610 -60 L 740 15 L 610 90 L 0 90 L 56 15 Z" fill="var(--panel)" fill-opacity="0.95" stroke="var(--accent-5)" stroke-width="3" filter="url(#svg63f696ef-shadow)"/>
      <rect id="ITEM_5_TEXT_BG" x="138" y="-42" width="520" height="114" rx="18" fill="var(--panel)" fill-opacity="0.9" stroke="var(--primary-text)" stroke-opacity="0.1" stroke-width="1.5"/>
      <rect x="150" y="-32" width="496" height="94" rx="14" fill="url(#svg63f696ef-universal-surface-sheen)" opacity="0.76"/>
      <circle cx="82" cy="15" r="56" fill="url(#svg63f696ef-universal-icon-aura)" opacity="0.82"/>
      <circle id="ITEM_5_PAD" cx="82" cy="15" r="40" fill="var(--icon-pad-bg)" stroke="var(--primary-text)" opacity="0.94" fill-opacity="0.9" stroke-width="2"/>
      <circle id="ITEM_5_PAD_INNER" cx="82" cy="15" r="31.20" fill="var(--accent-2)" fill-opacity="0.22"/>
      <circle cx="82" cy="15" r="32" fill="none" stroke="var(--accent-5)" stroke-width="3" stroke-dasharray="6 4"/>
      <g id="ITEM_5_ICON" transform="translate(50, -17)" data-icon-size="64" stroke-dasharray="6 4">
        <g transform="translate(-9.725490196078434,-10.03921568627451) scale(3.34640522875817)" vector-effect="non-scaling-stroke" stroke-width="2.48" stroke-linecap="round" stroke-linejoin="round" stroke-opacity="1.0">
          <path d="M9.615 20h-2.615a2 2 0 0 1 -2 -2v-12a2 2 0 0 1 2 -2h8a2 2 0 0 1 2 2v8" vector-effect="non-scaling-stroke" fill="none" stroke="#f1f5f9"/>
          <path d="M14 19l2 2l4 -4" vector-effect="non-scaling-stroke" fill="none" stroke="#f1f5f9"/>
          <path d="M9 8h4" vector-effect="non-scaling-stroke" fill="none" stroke="#f1f5f9"/>
          <path d="M9 12h2" vector-effect="non-scaling-stroke" fill="none" stroke="#f1f5f9"/>
        </g>
      </g>
      <text id="ITEM_5_HEAD" x="162.0" y="-30.0" font-weight="700" font-size="27" fill="var(--accent-2)" data-bg-id="ITEM_5_TEXT_BG" fill-opacity="1.0" stroke="none" style="font-size: 30px; font-family: Inter, Segoe UI, Kalam, Roboto, Helvetica, Arial, sans-serif; font-weight: 700; letter-spacing:-0.4px;" data-final-font-size="30">
        <tspan x="162.0" dy="29.49px">Verification Result</tspan>
      </text>
      <rect id="ITEM_5_HEAD_FRAME" x="162" y="-30" width="472" height="36" fill="none"/>
      <text id="ITEM_5_BODY" x="162.0" y="10.0" font-size="18.5" fill="var(--primary-text)" data-bg-id="ITEM_5_TEXT_BG" style="font-size: 26px; font-family: Inter, Segoe UI, Kalam, Roboto, Helvetica, Arial, sans-serif; font-weight: 400;" data-final-font-size="26">
        <tspan x="162.0" dy="23.00px">Final line indicates if a technical</tspan>
        <tspan x="162.0" dy="29.90px">explanation was found</tspan>
      </text>
      <rect id="ITEM_5_BODY_FRAME" x="162" y="10" width="468" height="60" fill="none"/>
    </g>
  </g>
</svg>
