<?xml version='1.0' encoding='utf-8'?>
<svg xmlns="http://www.w3.org/2000/svg" width="1920" height="1080" viewBox="0 0 1920 1080" data-theme="dark">
  <style>
        @font-face {
            font-family: 'Inter';
            src: url('assets/fonts/Inter-Regular.ttf') format('truetype');
            font-weight: 400;
            font-style: normal;
            font-display: swap;
        }
        @font-face {
            font-family: 'Inter';
            src: url('assets/fonts/Inter-Bold.ttf') format('truetype');
            font-weight: 600;
            font-style: normal;
            font-display: swap;
        }
        @font-face {
            font-family: 'Inter';
            src: url('assets/fonts/Inter-Bold.ttf') format('truetype');
            font-weight: 800;
            font-style: normal;
            font-display: swap;
        }
        
:root {
    --background: #0f172a;
    --panel: #1e293b;
    --primary-text: #f1f5f9;
    --muted-text: #94a3b8;
    --inverse-text: #0f172a;
    --border: #334155;
    --shadow-color: #000000;
    --icon-pad-bg: #1e293b;
    --art-glow: #7dd3fc;
    --art-glow-opacity: 0.18;
    --art-sheen: #ffffff;
    --art-sheen-opacity: 0.18;
    --art-shadow: #000000;
    --art-shadow-opacity: 0.28;
    --art-muted-line: #64748b;
    --art-panel-tint: #1e293b;
    --font-family: 'Inter', 'Segoe UI', 'Kalam', Roboto, Helvetica, Arial, sans-serif;
    --radius-xl: 16px;
    --font-family-headline: 'Inter', 'Segoe UI', 'Kalam', Roboto, Helvetica, Arial, sans-serif;
    --font-family-body: 'Inter', 'Segoe UI', 'Kalam', Roboto, Helvetica, Arial, sans-serif;
    --font-heading: 'Inter', 'Segoe UI', 'Kalam', Roboto, Helvetica, Arial, sans-serif;
    --font-body: 'Inter', 'Segoe UI', 'Kalam', Roboto, Helvetica, Arial, sans-serif;
    --font-size-h1: 56px;
    --font-size-h2: 40px;
    --font-size-h3: 28px;
    --font-size-body: 24px;
    --font-size-caption: 18px;
    --secondary-text: var(--muted-text);
    --panel-border: var(--border);
    --font-weight-normal: 400;
    --font-weight-medium: 500;
    --font-weight-semibold: 600;
    --font-weight-bold: 700;
    --spacing-gutter-pct: 0.07;
    --spacing-top-pct: 0.15;
    --spacing-bottom-pct: 0.07;
    --spacing-title-y-pct: 0.055;
    --accent-1: #22d3ee;
    --accent-2: #38bdf8;
    --accent-3: #60a5fa;
    --accent-4: #818cf8;
    --accent-5: #a78bfa;
    --accent-6: #2dd4bf;
}
:root[data-theme="dark"] {
    --background: #0f172a;
    --panel: #1e293b;
    --primary-text: #f1f5f9;
    --muted-text: #94a3b8;
    --inverse-text: #0f172a;
    --border: #334155;
    --shadow-color: #000000;
    --icon-pad-bg: #1e293b;
    --art-glow: #7dd3fc;
    --art-glow-opacity: 0.18;
    --art-sheen: #ffffff;
    --art-sheen-opacity: 0.18;
    --art-shadow: #000000;
    --art-shadow-opacity: 0.28;
    --art-muted-line: #64748b;
    --art-panel-tint: #1e293b;
    --accent-1: #22d3ee;
    --accent-2: #38bdf8;
    --accent-3: #60a5fa;
    --accent-4: #818cf8;
    --accent-5: #a78bfa;
    --accent-6: #2dd4bf;
}
:root[data-theme="light"] {
    --background: #f8fafc;
    --panel: #ffffff;
    --primary-text: #0f172a;
    --muted-text: #64748b;
    --inverse-text: #ffffff;
    --border: #e2e8f0;
    --shadow-color: #000000;
    --icon-pad-bg: #1e293b;
    --art-glow: #0891b2;
    --art-glow-opacity: 0.10;
    --art-sheen: #ffffff;
    --art-sheen-opacity: 0.34;
    --art-shadow: #0f172a;
    --art-shadow-opacity: 0.14;
    --art-muted-line: #94a3b8;
    --art-panel-tint: #f1f5f9;
    --accent-1: #0891b2;
    --accent-2: #0284c7;
    --accent-3: #2563eb;
    --accent-4: #4f46e5;
    --accent-5: #7c3aed;
    --accent-6: #0d9488;
}</style>
  <rect x="0" y="0" width="1.92E+3" height="1.08E+3" fill="#252a34" stroke="none" id="programmatic_background"/>
  <line id="HEADER_DECOR" x1="960.0" x2="1080.0" y1="135.0" y2="135.0" stroke="var(--accent-1)" stroke-width="6" stroke-linecap="round"/>
  <defs>
    <pattern id="svg1e15cbc3-napkin-hatch" patternUnits="userSpaceOnUse" width="12" height="12">
      <path d="M -3 12 L 12 -3 M 0 15 L 15 0" fill="none" stroke="var(--primary-text)" stroke-width="1" stroke-opacity="0.05"/>
    </pattern>
    <radialGradient id="svg1e15cbc3-universal-edge-vignette" cx="50%" cy="50%" r="72%">
      <stop offset="0%" stop-color="var(--background)" stop-opacity="0"/>
      <stop offset="72%" stop-color="var(--background)" stop-opacity="0.12"/>
      <stop offset="100%" stop-color="var(--primary-text)" stop-opacity="0.08"/>
    </radialGradient>
    <linearGradient id="svg1e15cbc3-universal-surface-sheen" x1="0%" y1="0%" x2="100%" y2="100%">
      <stop offset="0%" stop-color="var(--art-sheen)" stop-opacity="var(--art-sheen-opacity)"/>
      <stop offset="46%" stop-color="var(--art-sheen)" stop-opacity="0.035"/>
      <stop offset="100%" stop-color="var(--art-panel-tint)" stop-opacity="0.14"/>
    </linearGradient>
    <radialGradient id="svg1e15cbc3-universal-icon-aura" cx="50%" cy="42%" r="64%">
      <stop offset="0%" stop-color="var(--art-glow)" stop-opacity="var(--art-glow-opacity)"/>
      <stop offset="100%" stop-color="var(--background)" stop-opacity="0"/>
    </radialGradient>
    <filter id="svg1e15cbc3-text-glow" x="-20%" y="-20%" width="140%" height="140%">
      <feDropShadow dx="0" dy="0" stdDeviation="2" flood-color="#000000" flood-opacity="0.4"/>
    </filter>
    <filter id="svg1e15cbc3-shadow" x="-30%" y="-30%" width="160%" height="160%">
      <feDropShadow dx="0" dy="2" stdDeviation="3" flood-color="#000000" flood-opacity="0.08"/>
      <feDropShadow dx="0" dy="6" stdDeviation="10" flood-color="#000000" flood-opacity="0.12"/>
    </filter>
    <marker id="svg1e15cbc3-arrowhead" markerWidth="10" markerHeight="7" refX="9" refY="3.5" orient="auto" markerUnits="strokeWidth">
      <polygon points="0 0, 10 3.5, 0 7" fill="var(--muted-text)" opacity="0.6"/>
    </marker>
  </defs>
  <rect width="100%" height="100%" fill="var(--background)" id="CANVAS_BG"/>
  <rect width="100%" height="100%" fill="url(#svg1e15cbc3-napkin-hatch)"/>
  <rect id="UNIVERSAL_EDGE_VIGNETTE" width="100%" height="100%" fill="url(#svg1e15cbc3-universal-edge-vignette)" opacity="0.62"/>
  <text id="TITLE" x="960.0" y="59" text-anchor="middle" font-weight="700" font-size="63" fill="#f1f5f9" style="font-size: 60px; font-family: Inter, Segoe UI, Kalam, Roboto, Helvetica, Arial, sans-serif; font-weight: 700; letter-spacing:-1.2px;" data-final-font-size="60">
    <tspan x="960.0" dy="68.00px">Competing Explanations for Angel Hair</tspan>
  </text>
  <rect id="TITLE_FRAME" x="134" y="59" width="1652" height="103" fill="none"/>
  <g id="DIAGRAM_SCALER" transform="translate(50.3, 33.8) scale(0.95)">
    <g transform="translate(495.0, 390.0)">
      <rect id="ITEM_1_BG" x="-375" y="-120" width="750" height="240" rx="22" fill="var(--accent-5)" stroke="var(--accent-1)" stroke-width="2" fill-opacity="0.4"/>
      <circle cx="-240" cy="0" r="50" fill="var(--accent-1)" opacity="0.15"/>
      <g transform="translate(-90.0, 0.0)">
        <text id="ITEM_1_HEAD" text-anchor="start" font-weight="bold" font-size="36" fill="var(--primary-text)" x="-6.0" y="-84.0" data-bg-id="ITEM_1_BG" fill-opacity="1.0" stroke="none" style="font-size: 30px; font-family: Inter, Segoe UI, Kalam, Roboto, Helvetica, Arial, sans-serif; font-weight: 700; letter-spacing:-0.4px;" data-final-font-size="30">
          <tspan x="-6.0" dy="33.25px">Spider Ballooning</tspan>
        </text>
        <rect id="ITEM_1_HEAD_FRAME" x="-6" y="-84" width="390" height="50" fill="none"/>
        <text id="ITEM_1_BODY" text-anchor="start" font-size="24" fill="var(--primary-text)" x="-8.0" y="-28.0" data-bg-id="ITEM_1_BG" style="font-size: 26px; font-family: Inter, Segoe UI, Kalam, Roboto, Helvetica, Arial, sans-serif; font-weight: 400;" data-final-font-size="26">
          <tspan x="-8.0" dy="36.84px">Small spiders release silk threads</tspan>
          <tspan x="-8.0" dy="29.90px">to travel via wind</tspan>
        </text>
        <rect id="ITEM_1_BODY_FRAME" x="-8" y="-28" width="460" height="140" fill="none"/>
      </g>
      <circle id="ITEM_1_PAD" cx="-245" cy="0.0" r="48" fill="var(--icon-pad-bg)" stroke="var(--primary-text)" opacity="0.9" fill-opacity="0.9" stroke-width="2"/>
      <circle id="ITEM_1_PAD_INNER" cx="-245" cy="0.0" r="37.44" fill="var(--accent-5)" fill-opacity="0.22"/>
      <circle cx="-245" cy="0.0" r="38" fill="none" stroke="var(--accent-1)" stroke-width="3" stroke-dasharray="6 4"/>
      <g id="ITEM_1_ICON" transform="translate(-283, -38)" data-icon-size="76" stroke-dasharray="6 4">
        <g transform="translate(-5.380530973451328,-5.380530973451328) scale(2.690265486725664)">
          <path d="M29.93 16.29C29.95 16.26 29.98 16.22 29.99 16.18V16.17C30 16.15 30 16.13 30.01 16.11C30.01 16.09 30.02 16.07 30.02 16.04C30.02 16.04 30.02 16.04 30.02 16.03V16.02C30.02 16.01 30.02 16 30.02 16C30.02 15.99 30.02 15.98 30.02 15.97V15.96C30.02 15.94 30.01 15.92 30.01 15.9V15.89C30.01 15.87 30 15.85 29.99 15.84V15.83C29.98 15.81 29.97 15.79 29.96 15.77C29.95 15.75 29.94 15.74 29.93 15.72L29.92 15.71C29.91 15.69 29.89 15.68 29.88 15.66C29.87 15.65 29.85 15.63 29.83 15.62L29.82 15.61C29.8 15.6 29.78 15.59 29.76 15.57C27.18 14.18 25.76 12.27 25.56 9.9C25.4 8.09 26.02 6.67 26.02 6.66C26.02 6.66 26.02 6.66 26.02 6.65C26.03 6.63 26.04 6.61 26.04 6.59C26.04 6.59 26.04 6.59 26.04 6.58C26.05 6.56 26.05 6.54 26.05 6.52C26.05 6.51 26.05 6.51 26.05 6.5C26.05 6.48 26.05 6.46 26.05 6.44C26.05 6.44 26.05 6.44 26.05 6.43C26.05 6.41 26.05 6.39 26.05 6.37V6.36C26.05 6.33 26.04 6.29 26.02 6.25C26.02 6.25 26.02 6.24 26.01 6.24C26 6.22 25.99 6.2 25.98 6.19C25.97 6.17 25.95 6.15 25.94 6.14C25.94 6.14 25.94 6.14 25.94 6.13C25.94 6.13 25.94 6.13 25.93 6.12C25.92 6.11 25.92 6.11 25.91 6.1C25.9 6.09 25.9 6.09 25.89 6.08L25.88 6.07C25.86 6.06 25.85 6.04 25.83 6.03C25.83 6.03 25.82 6.03 25.82 6.02C25.81 6.02 25.79 6.01 25.78 6C25.78 6 25.77 6 25.77 5.99C25.75 5.98 25.73 5.97 25.71 5.97C25.71 5.97 25.71 5.97 25.7 5.97C25.68 5.96 25.66 5.96 25.64 5.96C25.63 5.96 25.63 5.96 25.62 5.96C25.6 5.96 25.58 5.96 25.56 5.96C25.56 5.96 25.56 5.96 25.55 5.96C25.53 5.96 25.51 5.96 25.49 5.96C25.48 5.96 25.48 5.96 25.47 5.96C25.45 5.96 25.43 5.97 25.41 5.97C22.6 6.81 20.25 6.47 18.43 4.93C17.05 3.77 16.48 2.33 16.48 2.32C16.47 2.3 16.46 2.28 16.45 2.26C16.44 2.24 16.43 2.23 16.42 2.21L16.41 2.2C16.4 2.18 16.38 2.17 16.37 2.15C16.36 2.14 16.34 2.12 16.33 2.11L16.32 2.1C16.29 2.08 16.25 2.05 16.21 2.04H16.2C16.18 2.03 16.16 2.03 16.14 2.02C16.1 2.01 16.08 2 16.06 2C16.06 2 16.06 2 16.05 2H16.04C16.03 2 16.03 2 16.02 2C16.01 2 16 2 15.99 2C15.98 2 15.98 2 15.97 2C15.95 2 15.93 2.01 15.91 2.01H15.9C15.88 2.01 15.87 2.02 15.85 2.03C15.85 2.03 15.84 2.03 15.84 2.04C15.82 2.05 15.8 2.06 15.78 2.07C15.78 2.07 15.78 2.07 15.77 2.07C15.75 2.08 15.74 2.09 15.72 2.1L15.71 2.11C15.69 2.12 15.68 2.14 15.66 2.15C15.65 2.16 15.63 2.18 15.62 2.19L15.61 2.2C15.6 2.22 15.59 2.24 15.58 2.25C14.19 4.83 12.28 6.25 9.91 6.45C8.11 6.63 6.69 6 6.68 6C6.68 6 6.68 6 6.67 6C6.65 5.99 6.63 5.98 6.61 5.97C6.61 5.97 6.61 5.97 6.6 5.97C6.58 5.97 6.56 5.96 6.55 5.96C6.54 5.96 6.54 5.96 6.53 5.96C6.51 5.96 6.49 5.96 6.47 5.96H6.46C6.44 5.96 6.42 5.96 6.41 5.96C6.4 5.96 6.4 5.96 6.39 5.96C6.35 5.97 6.31 5.98 6.27 6C6.27 6 6.26 6 6.26 6.01C6.24 6.01 6.22 6.02 6.21 6.03C6.18 6.05 6.17 6.06 6.15 6.07C6.15 6.07 6.15 6.07 6.14 6.07C6.14 6.07 6.14 6.07 6.13 6.08C6.13 6.09 6.13 6.1 6.12 6.1C6.11 6.11 6.11 6.12 6.1 6.12L6.09 6.13C6.08 6.15 6.06 6.17 6.05 6.19C6.05 6.19 6.05 6.2 6.04 6.2C6.04 6.21 6.03 6.23 6.02 6.24C6.02 6.24 6.02 6.25 6.01 6.25C6.01 6.27 6 6.29 5.99 6.32C5.99 6.34 5.98 6.36 5.98 6.38C5.98 6.39 5.98 6.39 5.98 6.4C5.98 6.42 5.98 6.44 5.98 6.46C5.98 6.48 5.98 6.5 5.98 6.52V6.53C5.98 6.55 5.99 6.57 5.99 6.59C6.83 9.4 6.49 11.75 4.95 13.57C3.79 14.95 2.36 15.51 2.33 15.52C2.31 15.53 2.29 15.54 2.27 15.55C2.27 15.55 2.27 15.55 2.26 15.55C2.24 15.56 2.23 15.57 2.21 15.58L2.2 15.59C2.18 15.6 2.17 15.62 2.15 15.63C2.15 15.63 2.15 15.63 2.14 15.64C2.13 15.65 2.12 15.67 2.1 15.68L2.09 15.69C2.07 15.72 2.05 15.76 2.03 15.8V15.81C2.02 15.83 2.02 15.85 2.01 15.87C2.01 15.89 2 15.91 2 15.93C2 15.93 2 15.93 2 15.94V15.95C2 15.96 2 15.97 2 15.97C2 15.98 2 15.99 2 16V16.01C2 16.03 2.01 16.05 2.01 16.07V16.08C2.01 16.1 2.02 16.12 2.03 16.13V16.14C2.04 16.16 2.05 16.18 2.06 16.2C2.07 16.22 2.08 16.23 2.09 16.25L2.1 16.26C2.11 16.28 2.13 16.29 2.14 16.31C2.15 16.32 2.17 16.34 2.19 16.35L2.2 16.36C2.22 16.37 2.24 16.38 2.26 16.4C4.84 17.79 6.26 19.7 6.46 22.07C6.64 23.91 6.02 25.33 6.02 25.34C6.02 25.34 6.02 25.34 6.02 25.35C6.01 25.37 6 25.39 6 25.41C6 25.41 6 25.41 6 25.42C5.99 25.44 5.99 25.46 5.99 25.48C5.99 25.49 5.99 25.49 5.99 25.5C5.99 25.52 5.99 25.54 5.99 25.56C5.99 25.56 5.99 25.56 5.99 25.57C5.99 25.59 5.99 25.61 5.99 25.63V25.64C6 25.68 6.01 25.72 6.03 25.76C6.03 25.76 6.03 25.77 6.04 25.77C6.05 25.79 6.06 25.81 6.07 25.82C6.08 25.84 6.1 25.86 6.11 25.87C6.11 25.87 6.11 25.87 6.11 25.88C6.11 25.88 6.11 25.88 6.12 25.89C6.13 25.9 6.13 25.9 6.14 25.91C6.15 25.92 6.15 25.92 6.16 25.93L6.17 25.94C6.19 25.95 6.2 25.97 6.22 25.98C6.22 25.98 6.23 25.98 6.23 25.99C6.25 26 6.26 26.01 6.28 26.02C6.28 26.02 6.29 26.02 6.29 26.03C6.31 26.04 6.33 26.05 6.35 26.05C6.35 26.05 6.35 26.05 6.36 26.05C6.38 26.06 6.4 26.06 6.42 26.06C6.43 26.06 6.43 26.06 6.44 26.06C6.46 26.06 6.48 26.06 6.5 26.06C6.52 26.06 6.54 26.06 6.56 26.06C6.57 26.06 6.57 26.06 6.57 26.06C6.59 26.06 6.61 26.05 6.63 26.05C9.44 25.2 11.79 25.55 13.61 27.09C14.99 28.25 15.56 29.69 15.56 29.7C15.57 29.72 15.58 29.74 15.59 29.76C15.6 29.78 15.61 29.79 15.62 29.81L15.63 29.82C15.64 29.84 15.66 29.85 15.67 29.87C15.68 29.88 15.7 29.9 15.71 29.91L15.72 29.92C15.75 29.94 15.79 29.97 15.83 29.98H15.84C15.86 29.99 15.88 29.99 15.9 30C15.92 30 15.94 30.01 15.96 30.01C15.96 30.01 15.96 30.01 15.97 30.01C15.98 30.01 15.99 30.01 16 30.01C16.02 30.01 16.04 30.01 16.06 30.01C16.07 30.01 16.07 30.01 16.08 30.01C16.1 30.01 16.11 30 16.13 30H16.14C16.18 29.99 16.22 29.97 16.25 29.95L16.26 29.94C16.27 29.93 16.29 29.92 16.3 29.91L16.31 29.9C16.33 29.89 16.34 29.87 16.35 29.86L16.36 29.85C16.37 29.84 16.38 29.83 16.39 29.81L16.4 29.8C16.41 29.78 16.42 29.77 16.43 29.75C17.82 27.17 19.73 25.75 22.1 25.55C23.9 25.39 25.32 26.01 25.33 26.02C25.35 26.03 25.37 26.04 25.39 26.04C25.39 26.04 25.39 26.04 25.4 26.04C25.42 26.05 25.44 26.05 25.46 26.05C25.47 26.05 25.47 26.05 25.48 26.05C25.5 26.05 25.52 26.05 25.54 26.05C25.54 26.05 25.54 26.05 25.55 26.05C25.57 26.05 25.59 26.05 25.61 26.05C25.62 26.05 25.62 26.05 25.63 26.05C25.67 26.04 25.71 26.03 25.75 26.01C25.75 26.01 25.76 26.01 25.76 26C25.78 25.99 25.8 25.98 25.81 25.97C25.83 25.96 25.85 25.94 25.86 25.93C25.86 25.93 25.86 25.93 25.87 25.93C25.87 25.93 25.87 25.93 25.88 25.92C25.89 25.91 25.89 25.91 25.9 25.9C25.91 25.89 25.91 25.89 25.92 25.88L25.93 25.87C25.94 25.85 25.96 25.84 25.97 25.82C25.97 25.82 25.97 25.81 25.98 25.81C25.99 25.79 26 25.78 26.01 25.76C26.01 25.76 26.01 25.75 26.02 25.75C26.03 25.73 26.04 25.71 26.04 25.69C26.05 25.67 26.05 25.65 26.05 25.63C26.05 25.62 26.05 25.62 26.05 25.61C26.05 25.59 26.05 25.57 26.05 25.55C26.05 25.53 26.05 25.51 26.05 25.49V25.48C26.05 25.46 26.04 25.44 26.04 25.42C25.2 22.61 25.54 20.26 27.08 18.44C28.24 17.06 29.68 16.49 29.69 16.49C29.71 16.48 29.73 16.47 29.75 16.46C29.75 16.46 29.75 16.46 29.76 16.46C29.78 16.45 29.79 16.44 29.81 16.43L29.82 16.42C29.84 16.41 29.85 16.39 29.87 16.38C29.88 16.37 29.9 16.35 29.91 16.34C29.92 16.3 29.92 16.3 29.93 16.29ZM27.8 15.5H23.65C20.81 13.9 21.57 11.45 21.75 10.98L24.61 8.12C24.53 8.65 24.5 9.27 24.55 9.93C24.76 12.54 26.23 14.32 27.8 15.5ZM11.5 19.36C11.43 18.54 11.11 17.46 10.09 16.5H14.82L11.52 19.8C11.52 19.66 11.51 19.51 11.5 19.36ZM16.52 10.13C16.62 10.23 16.73 10.33 16.84 10.43C17.44 10.94 18.37 11.45 19.69 11.45C19.75 11.45 19.8 11.45 19.86 11.45L16.52 14.79V10.13V10.13ZM15.52 14.79L12.22 11.49C12.36 11.49 12.51 11.49 12.66 11.48C13.48 11.41 14.56 11.09 15.52 10.07V14.79V14.79ZM14.81 15.5H10.15C10.25 15.4 10.35 15.29 10.45 15.18C10.98 14.55 11.52 13.57 11.47 12.16L14.81 15.5ZM15.52 17.21V21.88C15.42 21.78 15.31 21.68 15.2 21.58C14.6 21.07 13.67 20.56 12.35 20.56C12.29 20.56 12.24 20.56 12.18 20.56L15.52 17.21ZM16.52 17.21L19.82 20.51C19.68 20.51 19.53 20.51 19.38 20.52C18.56 20.59 17.48 20.91 16.52 21.93V17.21ZM17.23 16.5H21.9C21.8 16.6 21.7 16.71 21.6 16.82C21.07 17.45 20.53 18.43 20.58 19.84L17.23 16.5ZM17.23 15.5L20.53 12.2C20.53 12.34 20.53 12.49 20.54 12.64C20.61 13.46 20.93 14.54 21.95 15.5H17.23V15.5ZM17.76 5.67C19.75 7.37 22.05 7.59 24 7.31L21.06 10.25C17.92 11.13 16.73 8.86 16.52 8.4V4.35C16.84 4.78 17.25 5.24 17.76 5.67ZM9.95 7.47C12.56 7.26 14.34 5.79 15.52 4.22V8.37C13.92 11.21 11.47 10.45 11 10.27L8.14 7.41C8.67 7.48 9.28 7.52 9.95 7.47ZM5.69 14.26C7.39 12.27 7.61 9.97 7.33 8.02L10.27 10.96C11.15 14.09 8.88 15.29 8.42 15.5H4.37C4.8 15.18 5.26 14.77 5.69 14.26ZM4.24 16.5H8.39C11.23 18.1 10.47 20.55 10.29 21.02L7.43 23.88C7.51 23.35 7.54 22.73 7.49 22.07C7.28 19.46 5.81 17.68 4.24 16.5ZM14.28 26.33C12.74 25.02 11.01 24.59 9.41 24.59C8.94 24.59 8.48 24.63 8.04 24.69L10.98 21.75C14.12 20.87 15.31 23.14 15.52 23.6V27.65C15.2 27.22 14.79 26.76 14.28 26.33ZM22.09 24.53C19.48 24.74 17.7 26.21 16.52 27.78V23.63C18.12 20.79 20.57 21.55 21.04 21.73L23.9 24.59C23.37 24.52 22.76 24.48 22.09 24.53ZM26.35 17.74C24.65 19.73 24.43 22.03 24.71 23.98L21.77 21.04C20.89 17.9 23.16 16.71 23.62 16.5H27.67C27.24 16.82 26.78 17.23 26.35 17.74Z" fill="#998EA4"/>
        </g>
      </g>
    </g>
    <g transform="translate(1425.0, 390.0)">
      <rect id="ITEM_2_BG" x="-375" y="-120" width="750" height="240" rx="22" fill="var(--accent-6)" stroke="var(--accent-2)" stroke-width="2" fill-opacity="0.4"/>
      <circle cx="-240" cy="0" r="50" fill="var(--accent-1)" opacity="0.15"/>
      <g transform="translate(-90.0, 0.0)">
        <text id="ITEM_2_HEAD" text-anchor="start" font-weight="bold" font-size="36" fill="var(--primary-text)" x="-6.0" y="-84.0" data-bg-id="ITEM_2_BG" fill-opacity="1.0" stroke="none" style="font-size: 30px; font-family: Inter, Segoe UI, Kalam, Roboto, Helvetica, Arial, sans-serif; font-weight: 700; letter-spacing:-0.4px;" data-final-font-size="30">
          <tspan x="-6.0" dy="33.25px">Military Chaff</tspan>
        </text>
        <rect id="ITEM_2_HEAD_FRAME" x="-6" y="-84" width="390" height="50" fill="none"/>
        <text id="ITEM_2_BODY" text-anchor="start" font-size="24" fill="var(--primary-text)" x="-8.0" y="-28.0" data-bg-id="ITEM_2_BG" style="font-size: 26px; font-family: Inter, Segoe UI, Kalam, Roboto, Helvetica, Arial, sans-serif; font-weight: 400;" data-final-font-size="26">
          <tspan x="-8.0" dy="36.84px">Aircraft disperse reflective strips</tspan>
          <tspan x="-8.0" dy="29.90px">to confuse radar systems</tspan>
        </text>
        <rect id="ITEM_2_BODY_FRAME" x="-8" y="-28" width="460" height="140" fill="none"/>
      </g>
      <circle id="ITEM_2_PAD" cx="-245" cy="0.0" r="48" fill="var(--icon-pad-bg)" stroke="var(--primary-text)" opacity="0.9" fill-opacity="0.9" stroke-width="2"/>
      <circle id="ITEM_2_PAD_INNER" cx="-245" cy="0.0" r="37.44" fill="var(--accent-6)" fill-opacity="0.22"/>
      <circle cx="-245" cy="0.0" r="38" fill="none" stroke="var(--accent-2)" stroke-width="3" stroke-dasharray="6 4"/>
      <g id="ITEM_2_ICON" transform="translate(-283, -38)" data-icon-size="76" stroke-dasharray="6 4">
        <g transform="translate(-6.495726495726496,-4.547008547008547) scale(0.1623931623931624)" vector-effect="non-scaling-stroke" fill="#f1f5f9" fill-opacity="1.0" stroke="none">
          <path fill="#f1f5f9" d="M227.47 31.47c-67.048 70.547-83.972 178.936-32.907 267.467c51.07 88.544 153.333 128.083 247.906 105.22l-215-372.688zm232.81 82.155a31.1 31.1 0 0 0-14.81 4.188c-11.303 6.53-17.02 19.035-15.44 31.218l-96.31 29.25l34.842 60.345L442 169.812c9.755 7.504 23.456 8.826 34.78 2.282c14.992-8.663 20.117-27.822 11.47-42.813c-5.945-10.305-16.856-15.948-27.97-15.655zm-311.874 107.5l-26.656 4.688l10.688 60.53l-42.063 39.376l18.688 32.124l58.656-17.813l3.155 4.158L53.53 493.094h78.345l85.344-21.53l52.686 21.53h50.563l-7.064-45.78l.813-.22l-.97-.625l-4.75-30.72c-6.82-2.366-13.532-5.066-20.125-8.03l3.844 24.967l-51-33.437l18.75-6.594a241 241 0 0 1-19.033-13.125l-19.375 6.814l-39.625-26l5.813-7.375l15.156-9.658a242.3 242.3 0 0 1-24.53-35.03c-16-27.74-25.828-57.3-29.97-87.157zm21.906 153.97l29.094 19.06l-61.062 21.5l31.97-40.56zm48.72 31.967l49.343 32.344l-49.78 12.563l-58.845-24.033l59.28-20.875zm-94.813 26.532l5.718 2.312l58.125 23.75L82.75 486.22l41.47-52.626zm170.968 18.312l5.187 33.438l-52.625-21.47l45.813-11.562z" vector-effect="non-scaling-stroke" stroke="none"/>
        </g>
      </g>
    </g>
    <g transform="translate(495.0, 750.0)">
      <rect id="ITEM_3_BG" x="-375" y="-120" width="750" height="240" rx="22" fill="var(--accent-1)" stroke="var(--accent-3)" stroke-width="2" fill-opacity="0.4"/>
      <circle cx="-240" cy="0" r="50" fill="var(--accent-1)" opacity="0.15"/>
      <g transform="translate(-90.0, 0.0)">
        <text id="ITEM_3_HEAD" text-anchor="start" font-weight="bold" font-size="36" fill="var(--primary-text)" x="-6.0" y="-84.0" data-bg-id="ITEM_3_BG" fill-opacity="1.0" stroke="none" style="font-size: 30px; font-family: Inter, Segoe UI, Kalam, Roboto, Helvetica, Arial, sans-serif; font-weight: 700; letter-spacing:-0.4px;" data-final-font-size="30">
          <tspan x="-6.0" dy="33.25px">Chemical Markers</tspan>
        </text>
        <rect id="ITEM_3_HEAD_FRAME" x="-6" y="-84" width="390" height="50" fill="none"/>
        <text id="ITEM_3_BODY" text-anchor="start" font-size="24" fill="var(--primary-text)" x="-8.0" y="-28.0" data-bg-id="ITEM_3_BG" style="font-size: 26px; font-family: Inter, Segoe UI, Kalam, Roboto, Helvetica, Arial, sans-serif; font-weight: 400;" data-final-font-size="26">
          <tspan x="-8.0" dy="36.84px">Reported boron and silicon</tspan>
          <tspan x="-8.0" dy="29.90px">suggest non-biological origins</tspan>
        </text>
        <rect id="ITEM_3_BODY_FRAME" x="-8" y="-28" width="460" height="140" fill="none"/>
      </g>
      <circle id="ITEM_3_PAD" cx="-245" cy="0.0" r="48" fill="var(--icon-pad-bg)" stroke="var(--primary-text)" opacity="0.9" fill-opacity="0.9" stroke-width="2"/>
      <circle id="ITEM_3_PAD_INNER" cx="-245" cy="0.0" r="37.44" fill="var(--accent-1)" fill-opacity="0.22"/>
      <circle cx="-245" cy="0.0" r="38" fill="none" stroke="var(--accent-3)" stroke-width="3" stroke-dasharray="6 4"/>
      <g id="ITEM_3_ICON" transform="translate(-283, -38)" data-icon-size="76" stroke-dasharray="6 4">
        <g transform="translate(-7.037037037037033,-7.037037037037036) scale(3.753086419753086)" vector-effect="non-scaling-stroke" stroke-width="2.62" stroke-linecap="round" stroke-linejoin="round" stroke-opacity="1.0">
          <path d="M4.5 3h15" vector-effect="non-scaling-stroke" fill="none" stroke="#f1f5f9"/>
          <path d="M6 3v16a2 2 0 0 0 2 2h8a2 2 0 0 0 2-2V3" vector-effect="non-scaling-stroke" fill="none" stroke="#f1f5f9"/>
          <path d="M6 14h12" vector-effect="non-scaling-stroke" fill="none" stroke="#f1f5f9"/>
        </g>
      </g>
    </g>
    <g transform="translate(1425.0, 750.0)">
      <rect id="ITEM_4_BG" x="-375" y="-120" width="750" height="240" rx="22" fill="var(--accent-2)" stroke="var(--accent-4)" stroke-width="2" fill-opacity="0.4"/>
      <circle cx="-240" cy="0" r="50" fill="var(--accent-1)" opacity="0.15"/>
      <g transform="translate(-90.0, 0.0)">
        <text id="ITEM_4_HEAD" text-anchor="start" font-weight="bold" font-size="36" fill="var(--primary-text)" x="-6.0" y="-84.0" data-bg-id="ITEM_4_BG" fill-opacity="1.0" stroke="none" style="font-size: 30px; font-family: Inter, Segoe UI, Kalam, Roboto, Helvetica, Arial, sans-serif; font-weight: 700; letter-spacing:-0.4px;" data-final-font-size="30">
          <tspan x="-6.0" dy="33.25px">Visual Variety</tspan>
        </text>
        <rect id="ITEM_4_HEAD_FRAME" x="-6" y="-84" width="390" height="50" fill="none"/>
        <text id="ITEM_4_BODY" text-anchor="start" font-size="24" fill="var(--primary-text)" x="-8.0" y="-28.0" data-bg-id="ITEM_4_BG" style="font-size: 26px; font-family: Inter, Segoe UI, Kalam, Roboto, Helvetica, Arial, sans-serif; font-weight: 400;" data-final-font-size="26">
          <tspan x="-8.0" dy="36.84px">Diverse shapes like cigar-like</tspan>
          <tspan x="-8.0" dy="29.90px">or Chinese hats weaken consistency</tspan>
        </text>
        <rect id="ITEM_4_BODY_FRAME" x="-8" y="-28" width="460" height="140" fill="none"/>
      </g>
      <circle id="ITEM_4_PAD" cx="-245" cy="0.0" r="48" fill="var(--icon-pad-bg)" stroke="var(--primary-text)" opacity="0.9" fill-opacity="0.9" stroke-width="2"/>
      <circle id="ITEM_4_PAD_INNER" cx="-245" cy="0.0" r="37.44" fill="var(--accent-2)" fill-opacity="0.22"/>
      <circle cx="-245" cy="0.0" r="38" fill="none" stroke="var(--accent-4)" stroke-width="3" stroke-dasharray="6 4"/>
      <g id="ITEM_4_ICON" transform="translate(-283, -38)" data-icon-size="76" stroke-dasharray="6 4">
        <g transform="translate(-3.2203389830508433,-3.2203389830508473) scale(3.4350282485875705)" vector-effect="non-scaling-stroke" stroke-width="2.62" stroke-linecap="round" stroke-linejoin="round" stroke-opacity="1.0">
          <ellipse cx="12" cy="5" rx="9" ry="3" vector-effect="non-scaling-stroke" fill="none" stroke="#f1f5f9"/>
          <path d="M3 5v14a9 3 0 0 0 18 0V5" vector-effect="non-scaling-stroke" fill="none" stroke="#f1f5f9"/>
        </g>
      </g>
    </g>
  </g>
</svg>
